<svg xmlns="http://www.w3.org/2000/svg" viewBox="0 0 48 48">
  <path fill="#4285F4" d="M24 9.5c3.54 0 6.07 1.52 7.47 2.79l5.52-5.37C33.41 3.82 28.97 1.5 24 1.5 14.76 1.5 6.95 7.86 4.09 16.19l6.84 5.32C12.69 15.25 17.91 9.5 24 9.5z"/>
  <path fill="#34A853" d="M46.36 24.32c0-1.65-.15-3.23-.42-4.74H24v9.01h12.6c-.54 2.96-2.16 5.41-4.65 7.08l7.17 5.57C43.78 36.38 46.36 30.85 46.36 24.32z"/>
  <path fill="#FBBC05" d="M10.93 28.73A13.98 13.98 0 0 1 10.09 24c0-1.65.3-3.23.84-4.74l-6.84-5.32A23.945 23.945 0 0 0 0 24c0 3.77.9 7.36 2.5 10.54l8.43-6.81z"/>
  <path fill="#EA4335" d="M24 46.5c6.48 0 11.93-2.14 15.9-5.84l-7.17-5.57c-2 1.39-4.5 2.21-8.73 2.21-6.09 0-11.31-5.75-12.43-13.01l-8.43 6.81C6.95 40.14 14.76 46.5 24 46.5z"/>
</svg>
