<svg viewBox="15.419038076152306 218.35275000000001 645.370741482966 218.12" xmlns="http://www.w3.org/2000/svg" data-name="Layer 1" id="Layer_1" style="max-height: 500px" width="645.370741482966" height="218.12">
  <defs>
    <style>
      .cls-1 {
        fill: #e77c24;
      }
    </style>
  </defs>
  <g>
    <path d="M256.92,270.55h17.28l-28.69,80.01h-20.93l-28.53-80.01h17.12l21.87,60.69,21.87-60.69Z"/>
    <path d="M355.83,309.13c0-.13,0-.26,0-.4,0-5.85-1.01-11.23-3.01-16.13-2.01-4.9-4.75-9.1-8.24-12.62-3.49-3.51-7.59-6.26-12.29-8.23-4.7-1.97-9.75-2.96-15.14-2.96-5.7,0-11.04,1.07-16.01,3.19-4.97,2.13-9.3,5.09-13,8.87-3.7,3.78-6.6,8.2-8.72,13.26-2.12,5.05-3.17,10.51-3.17,16.36s1.03,11.15,3.09,16.22c2.06,5.05,4.97,9.48,8.72,13.26,3.75,3.78,8.19,6.76,13.31,8.94,5.12,2.18,10.7,3.28,16.73,3.28,7.29,0,13.81-1.5,19.57-4.48,5.76-2.98,10.01-6.81,12.76-11.5l-13.78-8.15c-5.82,5.32-12.05,7.99-18.71,7.99-3.16,0-6.1-.53-8.8-1.6-2.69-1.07-5.12-2.5-7.29-4.31s-3.96-4-5.39-6.55c-1.43-2.56-2.46-5.27-3.09-8.15h16.54v.06h45.91s0-3.49,0-6.33v-.04h0ZM294.01,302.66c1.48-5.11,4.26-9.26,8.33-12.45,4.06-3.19,8.95-4.8,14.66-4.8,2.96,0,5.71.46,8.24,1.36,2.54.91,4.76,2.13,6.66,3.67,1.9,1.55,3.41,3.36,4.52,5.43,1.11,2.07,1.67,4.34,1.67,6.79h-44.07Z"/>
    <path d="M622.34,247.24c0-2.77,1.01-5.14,3.01-7.11s4.38-2.96,7.13-2.96,5.1.98,7.06,2.96c1.95,1.97,2.93,4.34,2.93,7.11s-.98,5.17-2.93,7.18c-1.95,2.02-4.31,3.04-7.06,3.04s-5.12-1.01-7.13-3.04c-2.01-2.02-3.01-4.42-3.01-7.18ZM640.72,350.57h-16.64v-79.86h16.64v79.86Z"/>
    <path d="M127.26,294.11c-2.12-5.05-5-9.47-8.64-13.26-3.65-3.78-7.93-6.74-12.84-8.87-4.91-2.13-10.22-3.19-15.93-3.19s-11.01,1.07-15.93,3.19c-4.91,2.13-9.19,5.08-12.84,8.87-1.37,1.42-2.62,2.92-3.76,4.52.06.29.12.58.19.86.98,3.73,2.79,7.26,5.25,10.19,1.5,1.8,3.22,3.34,5.1,4.63.04-.1.08-.21.11-.31,1.27-3.09,3.01-5.77,5.23-8.07,2.22-2.29,4.8-4.07,7.77-5.35,2.96-1.28,6.07-1.92,9.35-1.92s6.34.64,9.19,1.92,5.33,3.06,7.45,5.35c2.11,2.29,3.78,4.98,5,8.07,1.21,3.09,1.82,6.39,1.82,9.9s-.61,6.79-1.82,9.82c-1.22,3.04-2.88,5.67-5,7.9-2.12,2.24-4.6,3.99-7.45,5.27-2.85,1.28-5.92,1.92-9.19,1.92s-6.39-.64-9.35-1.92c-2.96-1.28-5.55-3.04-7.77-5.27-2.22-2.24-3.96-4.87-5.23-7.9-.07-.17-.13-.34-.2-.51-1.35.93-2.63,2.02-3.81,3.24-.45.47-.91.98-1.33,1.49-2.46,2.98-4.26,6.55-5.2,10.32-.04.14-.06.27-.09.4,1.18,1.64,2.47,3.18,3.88,4.63,3.65,3.73,7.93,6.69,12.84,8.87,4.91,2.18,10.22,3.27,15.93,3.27s11.02-1.09,15.93-3.27c4.92-2.18,9.19-5.14,12.84-8.87,3.65-3.73,6.5-8.12,8.56-13.18,2.06-5.05,3.09-10.51,3.09-16.37s-1.05-11.31-3.17-16.37h0Z"/>
    <path d="M81.49,310.48c-8.29,0-15.78,3.48-21.2,9.09-.55.58-1.08,1.17-1.59,1.78-2.92,3.54-5.09,7.75-6.24,12.39-.62,2.48-.95,5.08-.95,7.76,0-8.56-3.36-16.32-8.78-21.94-5.42-5.61-12.92-9.09-21.2-9.09,8.29,0,15.78-3.47,21.2-9.09,5.42-5.61,8.78-13.37,8.78-21.93,0,2.8.36,5.52,1.03,8.1,1.19,4.58,3.37,8.74,6.29,12.22,5.49,6.56,13.61,10.71,22.66,10.71h0Z" class="cls-1"/>
    <path d="M187.97,270.24v17.09h-12.52c-5.6,0-10.01,1.54-13.24,4.63-3.23,3.09-4.84,7.24-4.84,12.46v46.16h-16.64v-80.34h16.59v4.58c1.6-.86,3.29-1.6,5.05-2.26,4.17-1.55,8.53-2.32,13.08-2.32h12.52,0Z"/>
    <path d="M481.62,270.24v7.52c-3.26-2.42-6.94-4.4-11.02-5.92-4.87-1.81-9.94-2.72-15.22-2.72-5.6,0-10.83,1.04-15.69,3.11-4.86,2.07-9.09,4.95-12.68,8.62-3.6,3.67-6.42,8.01-8.48,13.02-2.06,5.01-3.09,10.43-3.09,16.29s1.05,11.37,3.17,16.53c2.11,5.17,5,9.67,8.64,13.49,3.65,3.83,7.9,6.84,12.76,9.02,4.86,2.18,10.04,3.28,15.54,3.28,4.01,0,8.05-.7,12.12-2.08,4.07-1.38,7.85-3.67,11.33-6.86v7.03h16.64v-80.34h-14.02ZM477.8,320.23c-1.21,3.09-2.88,5.78-4.99,8.07-2.12,2.29-4.6,4.1-7.45,5.43-2.86,1.33-5.92,2-9.19,2s-6.37-.66-9.27-2c-2.91-1.33-5.47-3.14-7.69-5.43-2.22-2.29-3.96-4.95-5.23-7.98-1.27-3.04-1.9-6.31-1.9-9.82s.66-6.79,1.98-9.83c1.33-3.03,3.09-5.67,5.31-7.9,2.22-2.23,4.78-3.99,7.69-5.27,2.91-1.28,5.99-1.92,9.27-1.92s6.32.64,9.12,1.92c2.79,1.28,5.25,3.04,7.37,5.27,2.11,2.24,3.78,4.85,4.99,7.83,1.22,2.99,1.82,6.23,1.82,9.74s-.61,6.81-1.82,9.9Z"/>
    <path d="M592.78,270.24v6.73c-2.98-2.07-6.29-3.78-9.91-5.13-4.87-1.81-9.94-2.72-15.22-2.72-5.6,0-10.83,1.04-15.69,3.11-4.86,2.07-9.09,4.95-12.68,8.62-3.6,3.67-6.42,8.01-8.48,13.02-2.06,5.01-3.09,10.43-3.09,16.29s1.05,11.37,3.17,16.53c2.11,5.17,4.99,9.67,8.64,13.49,3.65,3.83,7.9,6.84,12.76,9.02,4.86,2.18,10.04,3.28,15.54,3.28,4.01,0,8.05-.7,12.12-2.08,4.07-1.38,7.85-3.67,11.33-6.86v7.03h16.64v-80.34h-15.12ZM590.08,320.23c-1.21,3.09-2.88,5.78-4.99,8.07-2.12,2.29-4.6,4.1-7.45,5.43-2.86,1.33-5.92,2-9.19,2s-6.37-.66-9.27-2c-2.91-1.33-5.47-3.14-7.69-5.43-2.22-2.29-3.96-4.95-5.23-7.98-1.27-3.04-1.9-6.31-1.9-9.82s.66-6.79,1.98-9.83c1.32-3.03,3.09-5.67,5.31-7.9,2.22-2.23,4.78-3.99,7.69-5.27,2.91-1.28,5.99-1.92,9.27-1.92s6.32.64,9.12,1.92c2.79,1.28,5.25,3.04,7.37,5.27,2.11,2.24,3.78,4.85,4.99,7.83,1.22,2.99,1.82,6.23,1.82,9.74s-.61,6.81-1.82,9.9Z"/>
    <path d="M413.37,270.24v17.09h-12.52c-5.6,0-10.01,1.54-13.24,4.63-3.22,3.09-4.83,7.24-4.83,12.46v46.16h-16.64v-80.34h16.59v4.58c1.6-.86,3.28-1.6,5.05-2.26,4.18-1.55,8.54-2.32,13.08-2.32h12.52Z"/>
  </g>
  <g>
    <path d="M236.33,388.11c-4.57-.37-6.85,1.72-6.85,6.25v1.24h6.85v2.25h-6.85v20.74h-2.34v-20.74h-3.96v-2.25h3.96v-1.24c0-2.88.79-5.07,2.37-6.55,1.58-1.49,3.86-2.12,6.83-1.91v2.21h0Z"/>
    <path d="M248.89,419.11c-3.37,0-6.23-1.15-8.57-3.47-2.34-2.32-3.52-5.16-3.52-8.53s1.18-6.22,3.52-8.53c2.34-2.32,5.2-3.47,8.57-3.47s6.19,1.15,8.53,3.47,3.52,5.16,3.52,8.53-1.18,6.22-3.52,8.53-5.19,3.47-8.53,3.47ZM241.96,414.05c1.89,1.9,4.19,2.85,6.92,2.85s5.02-.95,6.9-2.85c1.87-1.9,2.81-4.21,2.81-6.94s-.93-5.04-2.81-6.94c-1.87-1.9-4.17-2.85-6.9-2.85s-5.03.95-6.92,2.85-2.83,4.21-2.83,6.94.94,5.05,2.83,6.94Z"/>
    <path d="M268.75,400.11c1.38-3.22,3.94-4.83,7.68-4.83v2.21c-2.17,0-4,.7-5.47,2.1-1.47,1.4-2.21,3.47-2.21,6.23v12.79h-2.3v-22.99h2.3v4.5h0Z"/>
    <path d="M305.63,395.1c2.52,0,4.54.78,6.07,2.34s2.3,3.76,2.3,6.58v14.58h-2.3v-14.58c0-2.15-.56-3.8-1.67-4.97-1.12-1.16-2.6-1.75-4.44-1.75-2.05,0-3.72.71-4.99,2.12-1.28,1.41-1.91,3.53-1.91,6.34v12.83h-2.3v-14.58c0-2.15-.53-3.8-1.59-4.97-1.05-1.16-2.49-1.75-4.3-1.75-2.02,0-3.72.71-5.08,2.14-1.36,1.43-2.05,3.54-2.05,6.32v12.83h-2.3v-22.99h2.3v3.96c1.6-2.97,4.06-4.46,7.41-4.46,1.68,0,3.16.41,4.41,1.22s2.17,1.97,2.76,3.47c.8-1.56,1.87-2.74,3.24-3.52,1.36-.78,2.84-1.18,4.44-1.18h0Z"/>
    <path d="M330.83,395.1c3.37,0,6.11,1.2,8.21,3.59,2.1,2.39,3.15,5.22,3.15,8.51,0,.12,0,.31-.02.55s-.02.43-.02.55h-20.83c.28,2.57,1.31,4.65,3.1,6.23,1.8,1.58,4.01,2.37,6.64,2.37,1.84,0,3.45-.38,4.83-1.15,1.38-.76,2.42-1.77,3.13-3.04l2.02,1.2c-.95,1.6-2.3,2.86-4.05,3.79s-3.74,1.4-5.98,1.4c-3.53,0-6.42-1.13-8.69-3.38s-3.4-5.12-3.4-8.62,1.11-6.29,3.34-8.57,5.08-3.43,8.57-3.43h0ZM330.83,397.3c-2.61,0-4.78.81-6.53,2.44-1.75,1.63-2.74,3.73-2.99,6.3h18.49c-.24-2.73-1.22-4.87-2.92-6.41-1.7-1.55-3.72-2.32-6.04-2.32h0Z"/>
    <path d="M349.87,400.11c1.38-3.22,3.94-4.83,7.68-4.83v2.21c-2.17,0-4,.7-5.47,2.1-1.47,1.4-2.21,3.47-2.21,6.23v12.79h-2.3v-22.99h2.3v4.5h0Z"/>
    <path d="M362.19,418.6v-33.57h2.3v33.57h-2.3Z"/>
    <path d="M388.41,395.61h2.48l-9.94,25.11c-.89,2.27-2.15,4.06-3.77,5.36-1.63,1.3-3.4,1.87-5.33,1.72v-2.16c1.47.12,2.79-.3,3.98-1.26,1.18-.96,2.14-2.34,2.87-4.11l.51-1.24-10.58-23.41h2.48l9.29,20.46,8-20.46h0Z"/>
    <path d="M424.57,419.27c-5.47,0-10-1.81-13.59-5.42-3.6-3.61-5.4-8.09-5.4-13.41s1.8-9.8,5.4-13.41c3.6-3.61,8.13-5.42,13.59-5.42,3.29,0,6.32.78,9.11,2.34,2.79,1.55,4.95,3.67,6.51,6.33l-5.19,3.01c-.97-1.8-2.38-3.23-4.23-4.28-1.85-1.05-3.92-1.58-6.2-1.58-3.88,0-7.01,1.23-9.42,3.68s-3.61,5.57-3.61,9.34,1.2,6.89,3.61,9.34c2.4,2.46,5.55,3.68,9.42,3.68,2.28,0,4.36-.53,6.23-1.58s3.27-2.48,4.21-4.28l5.19,2.96c-1.53,2.67-3.68,4.78-6.46,6.36-2.79,1.58-5.84,2.36-9.16,2.36h-.01Z"/>
    <path d="M465.26,392.65h5.6v25.94h-5.6v-3.73c-2.11,2.94-5.14,4.41-9.08,4.41-3.56,0-6.61-1.33-9.13-3.97-2.52-2.64-3.78-5.87-3.78-9.68s1.26-7.08,3.78-9.7c2.52-2.63,5.57-3.94,9.13-3.94,3.94,0,6.97,1.45,9.08,4.36v-3.68h0ZM451.19,411.57c1.55,1.58,3.51,2.36,5.87,2.36s4.31-.78,5.87-2.36c1.55-1.58,2.34-3.56,2.34-5.94s-.78-4.37-2.34-5.94c-1.55-1.58-3.51-2.36-5.87-2.36s-4.31.78-5.87,2.36c-1.55,1.58-2.34,3.56-2.34,5.94s.78,4.37,2.34,5.94Z"/>
    <path d="M477.4,418.6v-37.88h5.6v37.88h-5.6Z"/>
    <path d="M489.49,418.6v-37.88h5.6v37.88h-5.6Z"/>
    <path d="M523.33,399.76c1.59.83,2.84,1.97,3.73,3.43.9,1.45,1.35,3.13,1.35,5.03,0,2.97-1.05,5.45-3.16,7.42-2.11,1.97-4.69,2.96-7.73,2.96h-15.57v-36.32h14.43c2.97,0,5.49.96,7.55,2.88s3.09,4.32,3.09,7.18c0,3.15-1.23,5.62-3.69,7.42h0ZM516.37,387.88h-8.46v9.55h8.46c1.31,0,2.42-.46,3.32-1.38s1.35-2.05,1.35-3.4-.45-2.48-1.35-3.4c-.9-.92-2.01-1.38-3.32-1.38ZM517.52,412.99c1.38,0,2.55-.49,3.5-1.48.95-.98,1.43-2.19,1.43-3.61s-.48-2.62-1.43-3.61c-.96-.98-2.12-1.48-3.5-1.48h-9.6v10.17h9.6Z"/>
    <path d="M545.74,419.27c-3.81,0-7.04-1.31-9.7-3.94-2.67-2.63-4-5.87-4-9.7s1.33-7.08,4-9.7c2.67-2.63,5.89-3.94,9.7-3.94s7.08,1.32,9.73,3.94c2.64,2.63,3.97,5.87,3.97,9.7s-1.33,7.08-3.97,9.7c-2.64,2.63-5.89,3.94-9.73,3.94ZM539.98,411.49c1.55,1.55,3.48,2.34,5.76,2.34s4.21-.78,5.76-2.34c1.55-1.55,2.34-3.51,2.34-5.87s-.78-4.31-2.34-5.87-3.48-2.34-5.76-2.34-4.21.78-5.76,2.34c-1.55,1.55-2.34,3.51-2.34,5.87s.78,4.31,2.34,5.87Z"/>
    <path d="M578.49,398.05h-6.44v12.45c0,1.07.24,1.84.73,2.31s1.2.73,2.15.78c.95.05,2.14.04,3.56-.03v5.03c-4.29.52-7.37.15-9.24-1.12-1.87-1.26-2.8-3.59-2.8-6.98v-12.45h-4.78v-5.4h4.78v-5.6l5.6-1.66v7.26h6.44v5.4h0Z"/>
    <path d="M588.89,387.7c-.71.71-1.55,1.06-2.52,1.06s-1.81-.36-2.52-1.06c-.71-.71-1.06-1.55-1.06-2.52s.34-1.81,1.04-2.52c.69-.71,1.54-1.06,2.54-1.06s1.85.36,2.54,1.06c.69.71,1.04,1.55,1.04,2.52s-.36,1.81-1.06,2.52h-.01ZM583.58,418.6v-25.94h5.6v25.94h-5.6Z"/>
    <path d="M607.91,419.27c-3.91,0-7.17-1.31-9.78-3.94-2.62-2.63-3.92-5.87-3.92-9.7s1.3-7.12,3.92-9.73c2.61-2.61,5.87-3.92,9.78-3.92,2.52,0,4.83.61,6.9,1.82,2.07,1.21,3.64,2.84,4.67,4.88l-4.83,2.8c-.59-1.25-1.48-2.22-2.67-2.93-1.19-.71-2.57-1.06-4.13-1.06-2.28,0-4.2.78-5.74,2.34-1.54,1.55-2.31,3.49-2.31,5.81s.77,4.26,2.31,5.81c1.54,1.55,3.45,2.34,5.74,2.34,1.53,0,2.89-.36,4.13-1.09,1.23-.73,2.15-1.7,2.78-2.91l4.83,2.75c-1.1,2.07-2.7,3.72-4.78,4.93-2.07,1.21-4.38,1.82-6.9,1.82h0Z"/>
    <path d="M628.52,399.81c0,.86.48,1.55,1.43,2.05.95.5,2.11.93,3.48,1.3s2.74.78,4.13,1.27c1.38.48,2.55,1.3,3.5,2.47.95,1.16,1.43,2.62,1.43,4.38,0,2.49-.96,4.45-2.88,5.87-1.92,1.42-4.33,2.12-7.24,2.12-2.56,0-4.75-.53-6.59-1.61-1.83-1.07-3.16-2.56-4-4.46l4.83-2.8c.9,2.49,2.82,3.73,5.76,3.73s4.41-.97,4.41-2.91c0-.83-.48-1.5-1.43-2.02-.96-.52-2.11-.96-3.48-1.33s-2.74-.78-4.13-1.27c-1.38-.48-2.55-1.29-3.5-2.42-.96-1.13-1.43-2.55-1.43-4.28,0-2.39.91-4.31,2.72-5.76,1.82-1.45,4.08-2.18,6.77-2.18,2.15,0,4.06.48,5.73,1.43,1.67.96,2.97,2.27,3.86,3.97l-4.73,2.64c-.9-1.97-2.52-2.96-4.88-2.96-1.08,0-1.97.24-2.7.7s-1.09,1.15-1.09,2.05h.02Z"/>
  </g>
</svg>